<?xml version="1.0" encoding="UTF-8"?>
<svg xmlns="http://www.w3.org/2000/svg" width="26" height="26" focusable="false" viewBox="0 0 26 26">
<circle fill="currentColor" cx="6.5" cy="6.5" r="3.5"/>
<circle fill="currentColor" cx="19.5" cy="6.5" r="3.5"/>
<path fill="currentColor" d="M24.5994667,9.71619098 C25.4730667,8.68978394 26,7.35822886 26,5.90877567 C26,2.6492398 23.3514667,0 20.0928,0 C17.6384,0 15.5237333,1.50493465 14.6362667,3.64790611 C13.4922667,3.51613764 12.5146667,3.51613764 11.3637333,3.64790611 C10.4762667,1.51186983 8.3616,0 5.9072,0 C2.64853333,0 0,2.6492398 0,5.90877567 C0,7.35822886 0.526933333,8.68978394 1.40053333,9.71619098 C0.485333333,11.2766071 0,13.017338 0,14.7719392 L0,14.7719392 L0,14.7719392 L0,14.7719392 C0,20.9650573 5.83093333,26 13,26 C20.1690667,26 26,20.9650573 26,14.7719392 L26,14.7719392 L26,14.7719392 L26,14.7719392 C26,13.0104028 25.5146667,11.2766071 24.5994667,9.71619098 Z M20.0928,1.17204588 C22.6997333,1.17204588 24.8213333,3.29421179 24.8213333,5.90184049 C24.8213333,7.20565484 24.2944,8.3846359 23.4416,9.23766338 C23.4138667,9.26540411 23.3861333,9.28620966 23.3584,9.31395039 C22.7344,9.9103761 21.9509333,10.3403574 21.0704,10.5276074 C21.0634667,10.5276074 21.0496,10.5345425 21.0426667,10.5345425 C20.9248,10.5553481 20.8069333,10.5761536 20.6890667,10.590024 C20.6474667,10.5969592 20.6058667,10.6038944 20.5712,10.6108296 C20.4741333,10.6177647 20.3701333,10.6246999 20.2730667,10.6246999 C20.2106667,10.6246999 20.1552,10.6316351 20.0928,10.6316351 C17.4858667,10.6316351 15.3642667,8.50946919 15.3642667,5.90184049 C15.3642667,5.90184049 15.3642667,5.90184049 15.3642667,5.90184049 C15.3642667,5.67991464 15.3850667,5.46492398 15.4128,5.24993332 C15.4197333,5.20138704 15.4266667,5.15284076 15.4336,5.11122966 C15.4682667,4.896239 15.5168,4.68124833 15.5861333,4.47319285 C16.1962667,2.5660176 17.9850667,1.17204588 20.0928,1.17204588 Z M5.9072,1.17204588 C8.01493333,1.17204588 9.80373333,2.55908242 10.4138667,4.47319285 C10.4832,4.68124833 10.5248,4.896239 10.5664,5.11122966 C10.5733333,5.15977594 10.5802667,5.20832222 10.5872,5.24993332 C10.6149333,5.46492398 10.6357333,5.68684983 10.6357333,5.90184049 C10.6357333,5.90184049 10.6357333,5.90184049 10.6357333,5.90184049 C10.6357333,8.50946919 8.51413333,10.6316351 5.9072,10.6316351 C5.8448,10.6316351 5.78933333,10.6246999 5.72693333,10.6246999 C5.62986667,10.6177647 5.52586667,10.6177647 5.4288,10.6108296 C5.3872,10.6038944 5.3456,10.5969592 5.31093333,10.590024 C5.19306667,10.5761536 5.0752,10.5622833 4.95733333,10.5345425 C4.9504,10.5345425 4.93653333,10.5276074 4.9296,10.5276074 C4.056,10.3403574 3.2656,9.9103761 2.6416,9.31395039 C2.61386667,9.28620966 2.58613333,9.26540411 2.5584,9.23766338 C1.7056,8.3846359 1.17866667,7.19871966 1.17866667,5.90184049 C1.17866667,3.29421179 3.30026667,1.17204588 5.9072,1.17204588 Z M2.27413333,10.5622833 C2.38506667,10.6455055 2.496,10.7287277 2.60693333,10.8050147 C2.60693333,10.8050147 2.60693333,10.8050147 2.60693333,10.8050147 C2.92586667,11.0200053 3.25866667,11.2003201 3.60533333,11.3459589 C3.61226667,11.3459589 3.6192,11.3528941 3.62613333,11.3528941 C3.7856,11.4222459 3.94506667,11.4777274 4.11146667,11.5332089 C4.14613333,11.5470792 4.18773333,11.5540144 4.22933333,11.5678848 C4.36106667,11.6094959 4.49973333,11.6441718 4.6384,11.6719125 C4.69386667,11.6857829 4.7424,11.6927181 4.79786667,11.7065884 C4.9296,11.7343292 5.06133333,11.7481995 5.19306667,11.7690051 C5.24853333,11.7759403 5.304,11.7828754 5.35946667,11.7898106 C5.5328,11.803681 5.70613333,11.8175513 5.8864,11.8175513 C5.89333333,11.8175513 5.9072,11.8175513 5.91413333,11.8175513 C9.1728,11.8175513 11.8213333,9.16831155 11.8213333,5.90877567 L11.8213333,5.90877567 L11.8213333,5.90877567 C11.8213333,5.71459056 11.8144,5.52040544 11.7936,5.33315551 C11.7866667,5.24299813 11.7658667,5.15284076 11.752,5.06268338 C11.7381333,4.97252601 11.7312,4.88236863 11.7104,4.79914644 C12.6186667,4.70898906 13.3813333,4.70898906 14.2896,4.79914644 C14.2757333,4.88930381 14.2618667,4.97946119 14.248,5.06268338 C14.2341333,5.15284076 14.2202667,5.24299813 14.2064,5.33315551 C14.1856,5.52734062 14.1786667,5.71459056 14.1786667,5.90877567 L14.1786667,5.90877567 L14.1786667,5.90877567 C14.1786667,9.16831155 16.8272,11.8175513 20.0858667,11.8175513 C20.0928,11.8175513 20.1066667,11.8175513 20.1136,11.8175513 C20.2938667,11.8175513 20.4672,11.803681 20.6405333,11.7898106 C20.696,11.7828754 20.7514667,11.7759403 20.8069333,11.7690051 C20.9386667,11.7551347 21.0704,11.7343292 21.2021333,11.7065884 C21.2576,11.6996532 21.3061333,11.6857829 21.3616,11.6719125 C21.5002667,11.6441718 21.632,11.6094959 21.7706667,11.5678848 C21.8122667,11.5540144 21.8469333,11.5470792 21.8885333,11.5332089 C22.0549333,11.4777274 22.2144,11.4222459 22.3738667,11.3598293 C22.3808,11.3598293 22.3877333,11.3528941 22.3946667,11.3528941 C22.7413333,11.2072553 23.0741333,11.0269405 23.3930667,10.8119499 C23.3930667,10.8119499 23.3930667,10.8119499 23.3930667,10.8119499 C23.504,10.7356628 23.6218667,10.6524407 23.7258667,10.5692185 C24.44,11.8869032 24.8144,13.322486 24.8144,14.7788744 L24.8144,14.7788744 C24.8144,17.0605495 20.0650667,19.508669 12.9930667,19.508669 C5.92106667,19.508669 1.1856,17.0536143 1.17866667,14.7719392 L1.17866667,14.7719392 C1.17866667,13.3155508 1.55306667,11.8730328 2.27413333,10.5622833 Z M13,24.8210189 C7.696,24.8210189 3.19626667,21.8319552 1.7056,17.7332622 C3.92426667,19.508669 8.09813333,20.6807149 13,20.6807149 C17.9018667,20.6807149 22.0757333,19.508669 24.2944,17.7332622 C22.8037333,21.8319552 18.304,24.8210189 13,24.8210189 Z"/>
<circle fill="currentColor" cx="10" cy="16" r="1"/>
<circle fill="currentColor" cx="16" cy="16" r="1"/>
</svg>
