<svg xmlns="http://www.w3.org/2000/svg" width="55" height="26" focusable="false" viewBox="0 0 55 26">
<path fill="currentColor" d="M30.9,5.2 C32.4,5.2 33.8,5.9 34.6,7 L34.6,7 L34.6,5.4 L37,5.4 L37,21.7 L34.6,21.7 L34.6,15.2 C33.8,16.2 32.4,16.8 30.9,16.8 C28.1,16.8 25.4,14.5 25.4,11 C25.4,7.4 28,5.2 30.9,5.2 Z M6.7,5.2 C9.2,5.2 11.1,6.6 12,8.6 L9.9,9.5 C9.3,8.2 8.2,7.4 6.8,7.4 C4.8,7.4 3.3,9 3.3,11 C3.3,13 4.8,14.6 6.8,14.6 C8.3,14.6 9.4,13.7 9.9,12.4 L12.1,13.3 C11.2,15.3 9.4,16.8 6.8,16.8 C3.4,16.8 0.9,14.2 0.9,11 C0.9,7.7 3.5,5.2 6.7,5.2 Z M18.7,5.2 C21.9,5.2 24.4,7.7 24.4,10.9 C24.4,14.1 21.8,16.6 18.7,16.6 C15.6,16.7 13,14.1 13,10.9 C13,7.7 15.5,5.2 18.7,5.2 Z M18.8,7.4 C16.9,7.4 15.4,9 15.4,10.9 C15.4,12.8 16.9,14.4 18.8,14.4 C20.7,14.5 22.2,12.9 22.2,10.9 C22.2,9 20.7,7.4 18.8,7.4 Z M34.6,11 C34.6,9 33.1,7.4 31.1,7.4 C29.1,7.4 27.6,9 27.6,11 C27.6,13 29.1,14.6 31.1,14.6 C33.1,14.6 34.6,13 34.6,11 Z M39.3,12 L39.3,5.6 L41.7,5.6 L41.7,11.8 C41.7,13.6 42.6,14.7 44.3,14.7 C45.9,14.7 47.1,13.5 47.1,11.6 L47.1,5.6 L49.4,5.6 L49.4,16.5 L47.1,16.5 L47.1,15.1 C46.4,16.1 45.2,16.7 43.8,16.7 C40.9,16.7 39.3,15 39.3,12 L39.3,12 Z M53.1,0.8 C54,0.8 54.7,1.5 54.7,2.4 C54.7,3.3 54,3.9 53.1,3.9 C52.2,3.9 51.5,3.2 51.5,2.3 C51.5,1.4 52.2,0.8 53.1,0.8 L53.1,0.8 Z M51.9,5.6 L54.3,5.6 L54.3,16.5 L51.9,16.5 L51.9,5.6 Z"/>
</svg>
